<svg xmlns="http://www.w3.org/2000/svg" xmlns:xlink="http://www.w3.org/1999/xlink" width="66" height="66" viewBox="0 0 66 66"><defs><filter id="a" x="0" y="0" width="66" height="66" filterUnits="userSpaceOnUse"><feOffset dy="3" input="SourceAlpha"/><feGaussianBlur stdDeviation="3" result="b"/><feFlood flood-opacity="0.161"/><feComposite operator="in" in2="b"/><feComposite in="SourceGraphic"/></filter></defs><g transform="translate(-4957 -126.583)"><g transform="translate(5014 132.583) rotate(90)"><g transform="matrix(0, -1, 1, 0, -6, 57)" filter="url(#a)"><g transform="translate(57 6) rotate(90)" fill="#fff" stroke="#4e3d42" stroke-width="2"><circle cx="24" cy="24" r="24" stroke="none"/><circle cx="24" cy="24" r="23" fill="none"/></g></g></g><g transform="translate(4979.504 146)"><path d="M13.4,7.025,0,13.737" transform="translate(3.426 -3.241)" fill="none" stroke="#4e3d42" stroke-width="2"/><line x1="17.827" y1="8.823" transform="translate(2.012 10.496)" fill="none" stroke="#4e3d42" stroke-width="2"/><g transform="translate(0 7.776)" fill="#4e3d42" stroke="#4e3d42" stroke-width="2"><ellipse cx="3.179" cy="3.073" rx="3.179" ry="3.073" stroke="none"/><ellipse cx="3.179" cy="3.073" rx="2.179" ry="2.073" fill="none"/></g><g transform="translate(14.139 0)" fill="#4e3d42" stroke="#4e3d42" stroke-width="2"><ellipse cx="3.179" cy="3.073" rx="3.179" ry="3.073" stroke="none"/><ellipse cx="3.179" cy="3.073" rx="2.179" ry="2.073" fill="none"/></g><g transform="translate(14.139 14.846)" fill="#4e3d42" stroke="#4e3d42" stroke-width="2"><ellipse cx="3.179" cy="3.073" rx="3.179" ry="3.073" stroke="none"/><ellipse cx="3.179" cy="3.073" rx="2.179" ry="2.073" fill="none"/></g></g></g></svg>