<svg xmlns="http://www.w3.org/2000/svg" xmlns:xlink="http://www.w3.org/1999/xlink" width="66" height="66" viewBox="0 0 66 66"><defs><filter id="a" x="0" y="0" width="66" height="66" filterUnits="userSpaceOnUse"><feOffset dy="3" input="SourceAlpha"/><feGaussianBlur stdDeviation="3" result="b"/><feFlood flood-opacity="0.161"/><feComposite operator="in" in2="b"/><feComposite in="SourceGraphic"/></filter><filter id="c" x="0" y="0" width="66" height="66" filterUnits="userSpaceOnUse"><feOffset dy="3" input="SourceAlpha"/><feGaussianBlur stdDeviation="3" result="d"/><feFlood flood-opacity="0.161"/><feComposite operator="in" in2="d"/><feComposite in="SourceGraphic"/></filter></defs><g transform="translate(4 -115)"><g transform="translate(84 182) rotate(180)"><g transform="matrix(-1, 0, 0, -1, 88, 67)" filter="url(#a)"><g transform="translate(57 54) rotate(180)" fill="#fff" stroke="#4e3d42" stroke-width="2"><circle cx="24" cy="24" r="24" stroke="none"/><circle cx="24" cy="24" r="23" fill="none"/></g></g><g transform="matrix(-1, 0, 0, -1, 88, 67)" filter="url(#c)"><g transform="translate(57 54) rotate(180)" fill="#fff" stroke="#4e3d42" stroke-width="2"><circle cx="24" cy="24" r="24" stroke="none"/><circle cx="24" cy="24" r="23" fill="none"/></g></g></g><g transform="translate(16 134)" fill="#fff" stroke="#4e3d42" stroke-width="2"><rect width="26" height="24" rx="5" stroke="none"/><rect x="1" y="1" width="24" height="22" rx="4" fill="none"/></g><g transform="translate(16 134)" fill="#fff" stroke="#4e3d42" stroke-width="2"><rect width="26" height="7" rx="3.5" stroke="none"/><rect x="1" y="1" width="24" height="5" rx="2.5" fill="none"/></g><g transform="translate(19 141.996)" fill="#fff" stroke="#4e3d42" stroke-width="2"><rect width="5.955" height="6.004" rx="2.978" stroke="none"/><rect x="1" y="1" width="3.955" height="4.004" rx="1.978" fill="none"/></g><g transform="translate(25.806 141.996)" fill="#fff" stroke="#4e3d42" stroke-width="2"><rect width="5.955" height="6.004" rx="2.978" stroke="none"/><rect x="1" y="1" width="3.955" height="4.004" rx="1.978" fill="none"/></g><g transform="translate(32.611 141.996)" fill="#fff" stroke="#4e3d42" stroke-width="2"><rect width="5.955" height="6.004" rx="2.978" stroke="none"/><rect x="1" y="1" width="3.955" height="4.004" rx="1.978" fill="none"/></g><g transform="translate(19 148.996)" fill="#fff" stroke="#4e3d42" stroke-width="2"><rect width="5.955" height="6.004" rx="2.978" stroke="none"/><rect x="1" y="1" width="3.955" height="4.004" rx="1.978" fill="none"/></g><g transform="translate(25.806 148.996)" fill="#fff" stroke="#4e3d42" stroke-width="2"><rect width="5.955" height="6.004" rx="2.978" stroke="none"/><rect x="1" y="1" width="3.955" height="4.004" rx="1.978" fill="none"/></g><g transform="translate(32.611 148.996)" fill="#fff" stroke="#4e3d42" stroke-width="2"><rect width="5.955" height="6.004" rx="2.978" stroke="none"/><rect x="1" y="1" width="3.955" height="4.004" rx="1.978" fill="none"/></g></g></svg>