<svg xmlns="http://www.w3.org/2000/svg" width="18" height="18" viewBox="0 0 18 18"><g transform="translate(-241.828 -19)"><g transform="translate(241.828 22.405)" fill="none"><path d="M6.279,0h5.442C15.189,0,18,3.267,18,7.3s-2.811,7.3-6.279,7.3H6.279C2.811,14.595,0,11.327,0,7.3S2.811,0,6.279,0Z" stroke="none"/><path d="M 6.279070854187012 0.9999961853027344 C 3.368181228637695 0.9999961853027344 1.000001907348633 3.824956893920898 1.000001907348633 7.297296524047852 C 1.000001907348633 10.7696361541748 3.368181228637695 13.59459686279297 6.279070854187012 13.59459686279297 L 11.72093105316162 13.59459686279297 C 14.63182067871094 13.59459686279297 17 10.7696361541748 17 7.297296524047852 C 17 3.824956893920898 14.63182067871094 0.9999961853027344 11.72093105316162 0.9999961853027344 L 6.279070854187012 0.9999961853027344 M 6.279070854187012 -3.814697265625e-06 L 11.72093105316162 -3.814697265625e-06 C 15.18877124786377 -3.814697265625e-06 18 3.267116546630859 18 7.297296524047852 C 18 11.32748603820801 15.18877124786377 14.59459686279297 11.72093105316162 14.59459686279297 L 6.279070854187012 14.59459686279297 C 2.811230659484863 14.59459686279297 1.9073486328125e-06 11.32748603820801 1.9073486328125e-06 7.297296524047852 C 1.9073486328125e-06 3.267116546630859 2.811230659484863 -3.814697265625e-06 6.279070854187012 -3.814697265625e-06 Z" stroke="none" fill="#FFF"/></g><g transform="translate(246.502 24.838)" fill="none" stroke="#FFF" stroke-width="1"><rect width="8.731" height="9.73" rx="4.365" stroke="none"/><rect x="0.5" y="0.5" width="7.731" height="8.73" rx="3.865" fill="none"/></g><g transform="translate(254.773 19)" fill="none" stroke="#FFF" stroke-width="1"><rect width="5.055" height="5.351" rx="2.527" stroke="none"/><rect x="0.5" y="0.5" width="4.055" height="4.351" rx="2.027" fill="none"/></g></g></svg>