<svg xmlns="http://www.w3.org/2000/svg" xmlns:xlink="http://www.w3.org/1999/xlink" width="66" height="66" viewBox="0 0 66 66"><defs><filter id="a" x="0" y="0" width="66" height="66" filterUnits="userSpaceOnUse"><feOffset dy="3" input="SourceAlpha"/><feGaussianBlur stdDeviation="3" result="b"/><feFlood flood-opacity="0.161"/><feComposite operator="in" in2="b"/><feComposite in="SourceGraphic"/></filter></defs><g transform="translate(-101 -546)"><g transform="translate(110 552)"><g transform="translate(48 48) rotate(180)"><g transform="matrix(-1, 0, 0, -1, 57, 54)" filter="url(#a)"><g transform="translate(57 54) rotate(180)" fill="#fff" stroke="#4e3d42" stroke-width="2"><circle cx="24" cy="24" r="24" stroke="none"/><circle cx="24" cy="24" r="23" fill="none"/></g></g></g><g transform="translate(12.8 9.6)"><path d="M1147.017,918.694l10.481-10.628,11.241,10.628h-8.1" transform="translate(-1147.017 -908.065)" fill="none" stroke="#4e3d42" stroke-linecap="round" stroke-linejoin="round" stroke-width="2"/><path d="M1272.2,913.22v-8.253" transform="translate(-1250.48 -902.592)" fill="none" stroke="#4e3d42" stroke-linecap="round" stroke-width="2"/><path d="M0,10.628,10.481,0,21.722,10.628h-8.1" transform="translate(21.722 28.022) rotate(180)" fill="none" stroke="#4e3d42" stroke-linecap="round" stroke-linejoin="round" stroke-width="2"/></g><path d="M0,8.253V0" transform="translate(12.832 35.355) rotate(180)" fill="none" stroke="#4e3d42" stroke-linecap="round" stroke-width="2"/></g></g></svg>