<svg xmlns="http://www.w3.org/2000/svg" xmlns:xlink="http://www.w3.org/1999/xlink" width="66" height="66" viewBox="0 0 66 66"><defs><filter id="a" x="0" y="0" width="66" height="66" filterUnits="userSpaceOnUse"><feOffset dy="3" input="SourceAlpha"/><feGaussianBlur stdDeviation="3" result="b"/><feFlood flood-opacity="0.161"/><feComposite operator="in" in2="b"/><feComposite in="SourceGraphic"/></filter></defs><g transform="translate(-63 -114)"><g transform="translate(67 -1)"><g transform="translate(84 182) rotate(180)"><g transform="matrix(-1, 0, 0, -1, 88, 67)" filter="url(#a)"><g transform="translate(57 54) rotate(180)" fill="#fff" stroke="#4e3d42" stroke-width="2"><circle cx="24" cy="24" r="24" stroke="none"/><circle cx="24" cy="24" r="23" fill="none"/></g></g></g></g><g transform="translate(2 4)"><g transform="translate(9.403 1)"><g transform="translate(74.597 127)"><path d="M3116.744,1678.484l-8.647,8.793,3.113,2.384,4.432-4.118-1.957,9.707h15.52l-1.8-9.707,3.041,4.118,3.774-2.384-6.816-8.793-5.647,3.143Z" transform="translate(-3108.096 -1672.895)" fill="none" stroke="#4e3d42" stroke-linecap="round" stroke-linejoin="round" stroke-width="2"/><path d="M3127,1675.139v-4.552h3.542v2.382" transform="translate(-3113.12 -1670.587)" fill="none" stroke="#4e3d42" stroke-linecap="round" stroke-linejoin="round" stroke-width="2"/></g><g transform="translate(85.425 131.729)"><line x1="3.161" y2="1.908" transform="translate(0)" fill="none" stroke="#4e3d42" stroke-linecap="round" stroke-width="2"/><line x1="2.875" y1="2.185" transform="translate(3.161)" fill="none" stroke="#4e3d42" stroke-linecap="round" stroke-width="2"/></g></g><g transform="translate(-2 -16)"><g transform="translate(80 160)" fill="#fff" stroke="#4e3d42" stroke-width="2"><rect width="18.936" height="5.385" rx="2.692" stroke="none"/><rect x="1" y="1" width="16.936" height="3.385" rx="1.692" fill="none"/></g><g transform="translate(80 163.615)" fill="#fff" stroke="#4e3d42" stroke-width="2"><rect width="18.936" height="5.385" rx="2.692" stroke="none"/><rect x="1" y="1" width="16.936" height="3.385" rx="1.692" fill="none"/></g><g transform="translate(80 155.615)"><g fill="#fff" stroke="#4e3d42" stroke-width="2"><rect width="18.936" height="5.385" rx="2.692" stroke="none"/><rect x="1" y="1" width="16.936" height="3.385" rx="1.692" fill="none"/></g></g></g></g></g></svg>