<svg xmlns="http://www.w3.org/2000/svg" width="17.5" height="14.943" viewBox="0 0 17.5 14.943"><g transform="translate(-126 -24)"><g transform="translate(140.238 37.266) rotate(-40)" fill="none" stroke="#FFF" stroke-width="1"><rect width="2.422" height="2.188" rx="1.094" stroke="none"/><rect x="0.5" y="0.5" width="1.422" height="1.188" rx="0.594" fill="none"/></g><g transform="translate(126 24)"><g transform="translate(0 0)"><g transform="translate(0)" fill="none"><path d="M11.276,14.041H6.041C2.71,14.041,0,10.892,0,7.021S2.71,0,6.041,0h5.235c3.331,0,6.041,3.15,6.041,7.021a7.775,7.775,0,0,1-1.107,4.052c-.04,0-.083,0-.129,0a2.438,2.438,0,0,0-2.432,2.409A5.289,5.289,0,0,1,11.276,14.041Z" stroke="none"/><path d="M 11.27610015869141 13.04090023040771 C 11.77181434631348 13.04090023040771 12.25699710845947 12.95601177215576 12.72416591644287 12.78802871704102 C 13.02188396453857 11.39066791534424 14.17683219909668 10.30251312255859 15.60529518127441 10.10222148895264 C 16.07211875915527 9.172721862792969 16.3169002532959 8.117776870727539 16.3169002532959 7.020900249481201 C 16.3169002532959 3.700960159301758 14.05560970306396 1.00000011920929 11.27610015869141 1.00000011920929 L 6.040800094604492 1.00000011920929 C 3.261290073394775 1.00000011920929 1.00000011920929 3.700960159301758 1.00000011920929 7.020900249481201 C 1.00000011920929 10.34033966064453 3.261290073394775 13.04090023040771 6.040800094604492 13.04090023040771 L 11.27610015869141 13.04090023040771 M 11.27610015869141 14.04090023040771 L 6.040800094604492 14.04090023040771 C 2.709890127182007 14.04090023040771 1.26647947240599e-07 10.89173984527588 1.26647947240599e-07 7.020900249481201 C 1.26647947240599e-07 3.149560213088989 2.709890127182007 1.152038606733186e-07 6.040800094604492 1.152038606733186e-07 L 11.27610015869141 1.152038606733186e-07 C 14.60700988769531 1.152038606733186e-07 17.3169002532959 3.149560213088989 17.3169002532959 7.020900249481201 C 17.3169002532959 8.482560157775879 16.9340991973877 9.883569717407227 16.20989036560059 11.07246017456055 C 16.16955947875977 11.07038974761963 16.1265697479248 11.06910037994385 16.08119964599609 11.06910037994385 C 14.75195980072021 11.06910037994385 13.66112041473389 12.14986991882324 13.6495304107666 13.47832012176514 C 12.89787006378174 13.85192012786865 12.09951972961426 14.04090023040771 11.27610015869141 14.04090023040771 Z" stroke="none" fill="#FFF"/></g></g></g></g></svg>